<svg width="20" height="20" viewBox="0 0 20 20" fill="none" xmlns="http://www.w3.org/2000/svg">
<path d="M5.00002 8.33333V11.6667M15 8.33333V11.6667M1.66669 6.83333L1.66669 13.1667C1.66669 14.1001 1.66669 14.5668 1.84834 14.9233C2.00813 15.2369 2.2631 15.4919 2.5767 15.6517C2.93322 15.8333 3.39993 15.8333 4.33335 15.8333L15.6667 15.8333C16.6001 15.8333 17.0668 15.8333 17.4233 15.6517C17.7369 15.4919 17.9919 15.2369 18.1517 14.9233C18.3334 14.5668 18.3334 14.1001 18.3334 13.1667V6.83333C18.3334 5.89991 18.3334 5.4332 18.1517 5.07668C17.9919 4.76308 17.7369 4.50811 17.4233 4.34832C17.0668 4.16667 16.6001 4.16667 15.6667 4.16667L4.33335 4.16666C3.39993 4.16666 2.93322 4.16666 2.5767 4.34832C2.2631 4.50811 2.00813 4.76308 1.84834 5.07668C1.66669 5.4332 1.66669 5.89991 1.66669 6.83333ZM12.0834 10C12.0834 11.1506 11.1506 12.0833 10 12.0833C8.84943 12.0833 7.91669 11.1506 7.91669 10C7.91669 8.8494 8.84943 7.91666 10 7.91666C11.1506 7.91666 12.0834 8.8494 12.0834 10Z" stroke="black" stroke-width="1.25" stroke-linecap="round" stroke-linejoin="round"/>
</svg>
