<svg width="20" height="20" viewBox="0 0 20 20" fill="none" xmlns="http://www.w3.org/2000/svg">
<rect x="11.9999" width="8" height="8" rx="4" fill="#D71920"/>
<path fill-rule="evenodd" clip-rule="evenodd" d="M14.8993 10.4072C15.1578 11.2397 15.4899 11.9317 15.8444 12.5014C16.1252 12.9527 16.3348 13.2896 16.4795 13.5362C16.2421 13.5416 15.9251 13.5417 15.5091 13.5417H4.4905C4.07446 13.5417 3.75744 13.5416 3.52008 13.5362C3.66481 13.2896 3.87433 12.9527 4.15516 12.5014C4.94548 11.2313 5.62479 9.35279 5.62479 6.66669C5.62479 5.50636 6.08573 4.39357 6.9062 3.57309C7.66152 2.81778 8.66458 2.36716 9.72439 2.30036C9.84283 1.862 10.006 1.442 10.2086 1.04556C10.1392 1.04298 10.0695 1.04169 9.99979 1.04169C8.50795 1.04169 7.07721 1.63432 6.02231 2.68921C4.96742 3.7441 4.37479 5.17484 4.37479 6.66669C4.37479 9.13089 3.75488 10.7787 3.09385 11.841L3.08633 11.8531C2.78661 12.3348 2.5527 12.7107 2.39578 12.9829C2.31719 13.1193 2.24878 13.2452 2.19938 13.354C2.17471 13.4083 2.14889 13.4711 2.12921 13.5372C2.11252 13.5932 2.08388 13.7034 2.09464 13.8349C2.10319 13.9394 2.12341 14.0986 2.21348 14.2608C2.30355 14.4229 2.42804 14.5242 2.51225 14.5866C2.67808 14.7096 2.87392 14.739 2.95039 14.7503C3.06198 14.7669 3.19249 14.7756 3.33084 14.781C3.60611 14.7917 3.98957 14.7917 4.47458 14.7917H4.47461H4.4905H15.5091H15.525H15.525C16.01 14.7917 16.3935 14.7917 16.6687 14.781C16.8071 14.7756 16.9376 14.7669 17.0492 14.7503C17.1257 14.739 17.3215 14.7096 17.4873 14.5866C17.5715 14.5242 17.696 14.4229 17.7861 14.2608C17.8762 14.0986 17.8964 13.9394 17.9049 13.8349C17.9157 13.7034 17.8871 13.5932 17.8704 13.5372C17.8507 13.4711 17.8249 13.4084 17.8002 13.354C17.7508 13.2452 17.6824 13.1193 17.6038 12.9829C17.4469 12.7107 17.213 12.3348 16.9133 11.8531L16.9133 11.8531L16.9057 11.841C16.6736 11.468 16.4466 11.0227 16.2496 10.4953C16.1668 10.4984 16.0835 10.5 15.9999 10.5C15.6248 10.5 15.257 10.4682 14.8993 10.4072ZM16.8814 13.5113C16.8903 13.5088 16.8954 13.5078 16.8957 13.508C16.8961 13.5082 16.8916 13.5095 16.8814 13.5113ZM3.10384 13.508C3.1042 13.5079 3.10932 13.5088 3.11812 13.5113C3.10789 13.5095 3.10349 13.5082 3.10384 13.508ZM8.20852 17.0314C7.94973 16.803 7.55476 16.8276 7.32635 17.0864C7.09793 17.3452 7.12256 17.7402 7.38135 17.9686C8.07876 18.5842 8.99634 18.9584 9.99979 18.9584C11.0032 18.9584 11.9208 18.5842 12.6182 17.9686C12.877 17.7402 12.9016 17.3452 12.6732 17.0864C12.4448 16.8276 12.0499 16.803 11.7911 17.0314C11.3132 17.4532 10.6871 17.7084 9.99979 17.7084C9.3125 17.7084 8.68633 17.4532 8.20852 17.0314Z" fill="black"/>
</svg>
