<svg width="16" height="16" viewBox="0 0 16 16" fill="none" xmlns="http://www.w3.org/2000/svg">
<g clip-path="url(#clip0_2674_131)">
<path d="M5.33333 5.33334V3.46668C5.33333 2.71994 5.33333 2.34657 5.47865 2.06136C5.60648 1.81047 5.81046 1.6065 6.06134 1.47867C6.34656 1.33334 6.71992 1.33334 7.46666 1.33334H12.5333C13.2801 1.33334 13.6534 1.33334 13.9386 1.47867C14.1895 1.6065 14.3935 1.81047 14.5213 2.06136C14.6667 2.34657 14.6667 2.71994 14.6667 3.46668V8.53334C14.6667 9.28008 14.6667 9.65345 14.5213 9.93866C14.3935 10.1895 14.1895 10.3935 13.9386 10.5214C13.6534 10.6667 13.2801 10.6667 12.5333 10.6667H10.6667M3.46666 14.6667H8.53333C9.28007 14.6667 9.65343 14.6667 9.93865 14.5214C10.1895 14.3935 10.3935 14.1895 10.5213 13.9387C10.6667 13.6534 10.6667 13.2801 10.6667 12.5333V7.46668C10.6667 6.71994 10.6667 6.34657 10.5213 6.06136C10.3935 5.81047 10.1895 5.6065 9.93865 5.47867C9.65343 5.33334 9.28007 5.33334 8.53333 5.33334H3.46666C2.71992 5.33334 2.34656 5.33334 2.06134 5.47867C1.81046 5.6065 1.60648 5.81047 1.47865 6.06136C1.33333 6.34657 1.33333 6.71994 1.33333 7.46668V12.5333C1.33333 13.2801 1.33333 13.6534 1.47865 13.9387C1.60648 14.1895 1.81046 14.3935 2.06134 14.5214C2.34656 14.6667 2.71992 14.6667 3.46666 14.6667Z" stroke="black" stroke-width="1.25" stroke-linecap="round" stroke-linejoin="round"/>
</g>
<defs>
<clipPath id="clip0_2674_131">
<rect width="16" height="16" fill="white"/>
</clipPath>
</defs>
</svg>
