<svg width="16" height="16" viewBox="0 0 16 16" fill="none" xmlns="http://www.w3.org/2000/svg">
<path d="M8 9.00001C8.46024 9.00001 8.83333 8.62691 8.83333 8.16668C8.83333 7.70644 8.46024 7.33334 8 7.33334C7.53976 7.33334 7.16667 7.70644 7.16667 8.16668C7.16667 8.62691 7.53976 9.00001 8 9.00001Z" fill="black"/>
<path d="M13.3333 9.00001C13.7936 9.00001 14.1667 8.62691 14.1667 8.16668C14.1667 7.70644 13.7936 7.33334 13.3333 7.33334C12.8731 7.33334 12.5 7.70644 12.5 8.16668C12.5 8.62691 12.8731 9.00001 13.3333 9.00001Z" fill="black"/>
<path d="M2.66666 9.00001C3.1269 9.00001 3.5 8.62691 3.5 8.16668C3.5 7.70644 3.1269 7.33334 2.66666 7.33334C2.20642 7.33334 1.83333 7.70644 1.83333 8.16668C1.83333 8.62691 2.20642 9.00001 2.66666 9.00001Z" fill="black"/>
</svg>
