<svg width="20" height="20" viewBox="0 0 20 20" fill="none" xmlns="http://www.w3.org/2000/svg">
<path d="M17.6754 13.2417C17.1452 14.4954 16.316 15.6002 15.2603 16.4594C14.2045 17.3187 12.9543 17.9062 11.6191 18.1707C10.2838 18.4351 8.90404 18.3685 7.60048 17.9765C6.29691 17.5845 5.10921 16.8792 4.14121 15.9222C3.1732 14.9652 2.45437 13.7856 2.04755 12.4866C1.64074 11.1876 1.55832 9.80875 1.80752 8.47054C2.05672 7.13232 2.62994 5.87553 3.47706 4.81003C4.32419 3.74453 5.41943 2.90277 6.66702 2.35834M17.6994 6.81098C18.033 7.61636 18.2376 8.46781 18.307 9.33404C18.3242 9.54804 18.3328 9.65504 18.2903 9.75143C18.2548 9.83194 18.1845 9.90813 18.107 9.94995C18.0144 10 17.8986 10 17.667 10H10.667C10.4337 10 10.317 10 10.2279 9.95459C10.1495 9.91465 10.0857 9.8509 10.0458 9.7725C10.0004 9.68337 10.0004 9.5667 10.0004 9.33334V2.33334C10.0004 2.10178 10.0004 1.98601 10.0504 1.89333C10.0922 1.81591 10.1684 1.74558 10.2489 1.71008C10.3453 1.66759 10.4523 1.67617 10.6663 1.69333C11.5326 1.76277 12.384 1.96741 13.1894 2.30101C14.2004 2.7198 15.1191 3.33363 15.8929 4.10745C16.6667 4.88127 17.2806 5.79993 17.6994 6.81098Z" stroke="black" stroke-width="1.25" stroke-linecap="round" stroke-linejoin="round"/>
</svg>
