<svg width="20" height="20" viewBox="0 0 20 20" fill="none" xmlns="http://www.w3.org/2000/svg">
<path d="M9.58336 4.16666H9.94535C12.4847 4.16666 13.7544 4.16666 14.2364 4.62273C14.653 5.01696 14.8376 5.59773 14.7252 6.16017C14.595 6.81084 13.5584 7.54404 11.4853 9.01043L8.09812 11.4062C6.02494 12.8726 4.98834 13.6058 4.85822 14.2565C4.74574 14.8189 4.93037 15.3997 5.34699 15.7939C5.82897 16.25 7.09865 16.25 9.63802 16.25H10.4167M6.66669 4.16666C6.66669 5.54737 5.5474 6.66666 4.16669 6.66666C2.78598 6.66666 1.66669 5.54737 1.66669 4.16666C1.66669 2.78594 2.78598 1.66666 4.16669 1.66666C5.5474 1.66666 6.66669 2.78594 6.66669 4.16666ZM18.3334 15.8333C18.3334 17.214 17.2141 18.3333 15.8334 18.3333C14.4526 18.3333 13.3334 17.214 13.3334 15.8333C13.3334 14.4526 14.4526 13.3333 15.8334 13.3333C17.2141 13.3333 18.3334 14.4526 18.3334 15.8333Z" stroke="black" stroke-width="1.25" stroke-linecap="round" stroke-linejoin="round"/>
</svg>
